<svg width="33" height="32" viewBox="0 0 33 32" fill="none" xmlns="http://www.w3.org/2000/svg">
<path d="M25.7639 14.816C25.1812 10.2267 21.2505 6.66669 16.5052 6.66669C12.8305 6.66669 9.63854 8.81469 8.18121 12.2C5.31721 13.056 3.17188 15.76 3.17188 18.6667C3.17188 22.3427 6.16254 25.3334 9.83854 25.3334H11.1719V22.6667H9.83854C7.63321 22.6667 5.83854 20.872 5.83854 18.6667C5.83854 16.7947 7.43721 14.9907 9.40254 14.6454L10.1772 14.5094L10.4332 13.7654C11.3705 11.0307 13.6972 9.33335 16.5052 9.33335C20.1812 9.33335 23.1719 12.324 23.1719 16V17.3334H24.5052C25.9759 17.3334 27.1719 18.5294 27.1719 20C27.1719 21.4707 25.9759 22.6667 24.5052 22.6667H21.8385V25.3334H24.5052C27.4465 25.3334 29.8385 22.9414 29.8385 20C29.837 18.8047 29.4347 17.6444 28.696 16.7047C27.9574 15.7649 26.925 15.0999 25.7639 14.816Z" fill="#FAFAFA"/>
<path d="M17.8385 18.6667V13.3334H15.1719V18.6667H11.1719L16.5052 25.3334L21.8385 18.6667H17.8385Z" fill="#FAFAFA"/>
</svg>
