<svg width="41" height="36" viewBox="0 0 41 36" fill="none" xmlns="http://www.w3.org/2000/svg">
<rect x="1" y="0.5" width="39" height="35" rx="11.5" fill="#052F35"/>
<rect x="1" y="0.5" width="39" height="35" rx="11.5" stroke="#0E464F"/>
<path d="M17.4999 9.5V26.5M10.9639 15.344C10.7159 15.344 10.4889 15.142 10.4999 14.879C10.5669 13.337 10.7549 12.333 11.2799 11.539C11.5794 11.0865 11.9549 10.6893 12.3899 10.365C13.5549 9.5 15.1999 9.5 18.4919 9.5H22.5059C25.7979 9.5 27.4429 9.5 28.6099 10.365C29.0409 10.685 29.4169 11.082 29.7189 11.539C30.2439 12.333 30.4319 13.337 30.4989 14.879C30.5099 15.142 30.2829 15.344 30.0339 15.344C28.6479 15.344 27.5239 16.533 27.5239 18C27.5239 19.467 28.6479 20.656 30.0339 20.656C30.2829 20.656 30.5099 20.858 30.4989 21.122C30.4319 22.663 30.2439 23.667 29.7189 24.462C29.4193 24.9141 29.0438 25.311 28.6089 25.635C27.4429 26.5 25.7979 26.5 22.5059 26.5H18.4929C15.2009 26.5 13.5559 26.5 12.3889 25.635C11.9543 25.3106 11.5791 24.9134 11.2799 24.461C10.7549 23.667 10.5669 22.663 10.4999 21.121C10.4889 20.858 10.7159 20.656 10.9639 20.656C12.3499 20.656 13.4739 19.467 13.4739 18C13.4739 16.533 12.3499 15.344 10.9639 15.344Z" stroke="white" stroke-width="1.5" stroke-linecap="round" stroke-linejoin="round"/>
</svg>
